<svg version="1.1" viewBox="0.0 0.0 283.0236220472441 100.0" fill="none" stroke="none" stroke-linecap="square" stroke-miterlimit="10" xmlns:xlink="http://www.w3.org/1999/xlink" xmlns="http://www.w3.org/2000/svg"><clipPath id="p.0"><path d="m0 0l283.02362 0l0 100.0l-283.02362 0l0 -100.0z" clip-rule="nonzero"/></clipPath><g clip-path="url(#p.0)"><path fill="#000000" fill-opacity="0.0" d="m0 0l283.02362 0l0 100.0l-283.02362 0z" fill-rule="evenodd"/><path fill="#000000" fill-opacity="0.0" d="m0 13.0236225l283.02362 0l0 73.95276l-283.02362 0z" fill-rule="evenodd"/><path fill="#000000" d="m50.693314 41.158123l-2.390625 0l0 24.968754l2.390625 0l0 0.953125l-12.0 0l0 -0.953125l2.40625 0l0 -12.875004l-9.453125 0l0 12.875004l2.390625 0l0 0.953125l-12.0 0l0 -0.953125l2.40625 0l0 -24.968754l-2.40625 0l0 -0.953125l12.0 0l0 0.953125l-2.390625 0l0 11.140625l9.453125 0l0 -11.140625l-2.40625 0l0 -0.953125l12.0 0l0 0.953125zm26.645432 24.968754q-0.484375 0.46875 -1.828125 0.828125q-1.34375 0.359375 -3.125 0.359375q-3.9375 0 -4.9375 -2.34375q-2.40625 2.5 -7.34375 2.5q-2.640625 0 -4.34375 -1.21875q-1.703125 -1.234375 -1.703125 -3.6406288q0 -3.21875 2.484375 -4.96875q2.5 -1.75 8.75 -2.46875l1.921875 -0.234375l0 -2.359375q0 -4.171875 -0.625 -5.609375q-0.625 -1.4375 -2.484375 -1.4375q-1.84375 0 -2.375 0.5q-0.515625 0.5 -0.375 1.15625q0.140625 0.640625 0.46875 1.703125q0.34375 1.046875 0.34375 1.671875q0 1.484375 -1.03125 2.53125q-1.03125 1.03125 -2.5 1.03125q-1.453125 0 -2.515625 -1.03125q-1.0625 -1.046875 -1.0625 -2.53125q0 -2.4375 2.515625 -4.1875q2.53125 -1.765625 7.546875 -1.765625q5.015625 0 7.140625 1.96875q2.140625 1.96875 2.140625 6.96875l0 8.640625q0 2.5312538 0.625 3.1875038q0.625 0.640625 2.3125 0.265625l0 0.484375zm-16.609375 -4.468754q0.234375 1.828125 1.34375 2.8125038q1.109375 0.984375 2.5625 0.984375q1.46875 0 2.578125 -1.453125l0 -8.156254l-1.734375 0.25q-2.203125 0.28125 -3.578125 1.671875q-1.359375 1.390625 -1.171875 3.890625zm31.488174 5.421879l-12.0 0l0 -0.953125l2.390625 0l0 -20.171879l-2.390625 0l0 -0.953125l9.59375 0l0 5.703125q0.4375 -2.34375 1.5625 -3.828125q1.125 -1.5 2.484375 -1.96875q1.375 -0.484375 2.640625 -0.484375q1.28125 0 2.453125 0.453125q1.1875 0.453125 1.75 1.828125q0.578125 1.359375 0.046875 2.734375q-0.515625 1.375 -1.84375 1.953125q-1.3125 0.5625 -2.421875 0.140625q-1.09375 -0.4375 -1.578125 -1.171875q-0.484375 -0.75 -0.671875 -1.421875q-0.484375 -1.78125 -1.296875 -1.78125q-0.90625 0 -2.015625 3.15625q-1.109375 3.140625 -1.109375 6.640625l0 9.171879l2.40625 0l0 0.953125zm23.184052 0l-12.0 0l0 -0.953125l2.390625 0l0 -20.171879l-2.390625 0l0 -0.953125l9.59375 0l0 5.703125q0.4375 -2.34375 1.5625 -3.828125q1.125 -1.5 2.484375 -1.96875q1.375 -0.484375 2.640625 -0.484375q1.28125 0 2.453125 0.453125q1.1875 0.453125 1.75 1.828125q0.578125 1.359375 0.046875 2.734375q-0.515625 1.375 -1.84375 1.953125q-1.3125 0.5625 -2.421875 0.140625q-1.09375 -0.4375 -1.578125 -1.171875q-0.484375 -0.75 -0.671875 -1.421875q-0.484375 -1.78125 -1.296875 -1.78125q-0.90625 0 -2.015625 3.15625q-1.109375 3.140625 -1.109375 6.640625l0 9.171879l2.40625 0l0 0.953125zm21.355927 5.328125q-1.296875 2.78125 -2.734375 4.0q-1.4375 1.234375 -3.84375 1.234375q-2.390625 0 -3.734375 -1.03125q-1.34375 -1.03125 -1.34375 -2.734375q0 -1.703125 0.984375 -2.71875q0.984375 -1.0 2.375 -1.0q1.390625 0 2.34375 0.515625q0.96875 0.53125 1.34375 1.15625q1.0625 1.6875 2.0 1.6875q0.9375 0 1.65625 -1.640625l2.015625 -4.75l-11.234375 -21.171879l-1.921875 0l0 -0.953125l12.90625 0l0 0.953125l-2.390625 0l6.421875 12.671875l5.53125 -12.671875l-3.84375 0l0 -0.953125l7.875 0l0 0.953125l-2.890625 0l-11.515625 26.453129zm50.592957 -24.046879q0 -4.265625 -1.421875 -5.734375q-1.40625 -1.46875 -5.296875 -1.46875l-1.4375 0l0 24.968754l3.359375 0l0 0.953125l-13.921875 0l0 -0.953125l3.359375 0l0 -24.968754l-1.4375 0q-3.84375 0 -5.265625 1.46875q-1.40625 1.46875 -1.40625 5.734375l-0.96875 0l0 -8.15625l25.40625 0l0 8.15625l-0.96875 0zm11.7495575 15.812504q1.0625 2.421875 3.65625 2.421875q2.59375 0 3.6875 -2.4375q1.109375 -2.4531288 1.109375 -8.093754q0 -5.640625 -1.109375 -8.109375q-1.09375 -2.46875 -3.6875 -2.46875q-2.59375 0 -3.65625 2.46875q-1.046875 2.46875 -1.046875 8.140625q0 5.65625 1.046875 8.078129zm3.5625 3.390625q-4.5625 0 -8.265625 -2.96875q-3.6875 -2.9843788 -3.6875 -8.453129q0 -2.9375 1.078125 -5.234375q1.078125 -2.3125 2.875 -3.65625q1.8125 -1.34375 3.875 -2.03125q2.0625 -0.703125 4.21875 -0.703125q2.15625 0 4.25 0.703125q2.09375 0.6875 3.890625 2.03125q1.796875 1.34375 2.890625 3.65625q1.109375 2.296875 1.109375 5.1875q0 2.875 -1.109375 5.140625q-1.09375 2.25 -2.921875 3.5937538q-3.640625 2.734375 -8.203125 2.734375zm55.915802 -1.4375l2.40625 0l0 0.953125l-12.0 0l0 -0.953125l2.40625 0l0 -13.453129q0 -3.40625 -1.015625 -4.84375q-1.0 -1.4375 -3.015625 -1.4375q-1.15625 0 -2.40625 0.671875q-1.25 0.671875 -2.0625 1.875q0.578125 1.71875 0.578125 4.796875l0 12.390629l2.390625 0l0 0.953125l-12.46875 0l0 -0.953125l2.875 0l0 -13.453129q0 -3.40625 -1.015625 -4.84375q-1.0 -1.4375 -3.015625 -1.4375q-2.734375 0 -4.375 2.875l0 16.859379l2.40625 0l0 0.953125l-12.0 0l0 -0.953125l2.390625 0l0 -20.171879l-2.390625 0l0 -0.953125l9.59375 0l0 2.5q0.921875 -1.25 2.859375 -2.140625q1.9375 -0.890625 4.203125 -0.890625q5.703125 0 7.4375 3.21875q1.25 -1.53125 3.3125 -2.375q2.0625 -0.84375 4.375 -0.84375q8.53125 0 8.53125 9.265625l0 12.390629z" fill-rule="nonzero"/></g></svg>