<svg version="1.1" viewBox="0.0 0.0 150.24146981627297 100.0" fill="none" stroke="none" stroke-linecap="square" stroke-miterlimit="10" xmlns:xlink="http://www.w3.org/1999/xlink" xmlns="http://www.w3.org/2000/svg"><clipPath id="p.0"><path d="m0 0l150.24147 0l0 100.0l-150.24147 0l0 -100.0z" clip-rule="nonzero"/></clipPath><g clip-path="url(#p.0)"><path fill="#000000" fill-opacity="0.0" d="m0 0l150.24147 0l0 100.0l-150.24147 0z" fill-rule="evenodd"/><path fill="#000000" fill-opacity="0.0" d="m0 13.0236225l150.48819 0l0 73.95276l-150.48819 0z" fill-rule="evenodd"/><path fill="#000000" d="m48.16974 41.158123l-2.390625 0l0 24.968754l2.390625 0l0 0.953125l-12.0 0l0 -0.953125l2.40625 0l0 -12.875004l-9.453125 0l0 12.875004l2.390625 0l0 0.953125l-12.0 0l0 -0.953125l2.40625 0l0 -24.968754l-2.40625 0l0 -0.953125l12.0 0l0 0.953125l-2.390625 0l0 11.140625l9.453125 0l0 -11.140625l-2.40625 0l0 -0.953125l12.0 0l0 0.953125zm26.645432 24.968754q-0.484375 0.46875 -1.828125 0.828125q-1.34375 0.359375 -3.125 0.359375q-3.9375 0 -4.9375 -2.34375q-2.40625 2.5 -7.34375 2.5q-2.640625 0 -4.34375 -1.21875q-1.703125 -1.234375 -1.703125 -3.6406288q0 -3.21875 2.484375 -4.96875q2.5 -1.75 8.75 -2.46875l1.921875 -0.234375l0 -2.359375q0 -4.171875 -0.625 -5.609375q-0.625 -1.4375 -2.484375 -1.4375q-1.84375 0 -2.375 0.5q-0.515625 0.5 -0.375 1.15625q0.140625 0.640625 0.46875 1.703125q0.34375 1.046875 0.34375 1.671875q0 1.484375 -1.03125 2.53125q-1.03125 1.03125 -2.5 1.03125q-1.453125 0 -2.515625 -1.03125q-1.0625 -1.046875 -1.0625 -2.53125q0 -2.4375 2.515625 -4.1875q2.53125 -1.765625 7.546875 -1.765625q5.015625 0 7.140625 1.96875q2.140625 1.96875 2.140625 6.96875l0 8.640625q0 2.5312538 0.625 3.1875038q0.625 0.640625 2.3125 0.265625l0 0.484375zm-16.609375 -4.468754q0.234375 1.828125 1.34375 2.8125038q1.109375 0.984375 2.5625 0.984375q1.46875 0 2.578125 -1.453125l0 -8.156254l-1.734375 0.25q-2.203125 0.28125 -3.578125 1.671875q-1.359375 1.390625 -1.171875 3.890625zm23.72255 6.437504q-1.84375 0 -3.140625 -1.296875q-1.28125 -1.296875 -1.28125 -3.1406288q0 -1.859375 1.28125 -3.15625q1.296875 -1.296875 3.140625 -1.296875q1.859375 0 3.15625 1.296875q1.296875 1.296875 1.296875 3.15625q0 1.8437538 -1.296875 3.1406288q-1.296875 1.296875 -3.15625 1.296875zm16.83377 -22.140629l0 11.71875q0 4.125 0.328125 5.015625q0.34375 0.890625 0.734375 1.5156288q0.71875 1.25 2.515625 1.25q1.796875 0 2.515625 -0.484375l0 0.953125q-2.296875 1.640625 -5.03125 1.640625q-4.03125 0 -6.15625 -1.921875q-2.109375 -1.9218788 -2.109375 -6.859379l0 -12.828125l-3.546875 0l0 -0.953125l3.546875 0q2.3125 -0.390625 4.078125 -2.234375q1.78125 -1.84375 2.453125 -5.109375l0.671875 0l0 7.34375l5.5625 0l0 0.953125l-5.5625 0zm16.406158 18.218754q1.0625 2.421875 3.65625 2.421875q2.59375 0 3.6875 -2.4375q1.109375 -2.4531288 1.109375 -8.093754q0 -5.640625 -1.109375 -8.109375q-1.09375 -2.46875 -3.6875 -2.46875q-2.59375 0 -3.65625 2.46875q-1.046875 2.46875 -1.046875 8.140625q0 5.65625 1.046875 8.078129zm3.5625 3.390625q-4.5625 0 -8.265625 -2.96875q-3.6875 -2.9843788 -3.6875 -8.453129q0 -2.9375 1.078125 -5.234375q1.078125 -2.3125 2.875 -3.65625q1.8125 -1.34375 3.875 -2.03125q2.0625 -0.703125 4.21875 -0.703125q2.15625 0 4.25 0.703125q2.09375 0.6875 3.890625 2.03125q1.796875 1.34375 2.890625 3.65625q1.109375 2.296875 1.109375 5.1875q0 2.875 -1.109375 5.140625q-1.09375 2.25 -2.921875 3.5937538q-3.640625 2.734375 -8.203125 2.734375z" fill-rule="nonzero"/></g></svg>