<svg version="1.1" viewBox="0.0 0.0 117.10498687664042 116.59580052493439" fill="none" stroke="none" stroke-linecap="square" stroke-miterlimit="10" xmlns:xlink="http://www.w3.org/1999/xlink" xmlns="http://www.w3.org/2000/svg"><clipPath id="p.0"><path d="m0 0l117.10499 0l0 116.5958l-117.10499 0l0 -116.5958z" clip-rule="nonzero"/></clipPath><g clip-path="url(#p.0)"><path fill="#000000" fill-opacity="0.0" d="m0 0l117.10499 0l0 116.5958l-117.10499 0z" fill-rule="evenodd"/><path fill="#000000" fill-opacity="0.0" d="m58.551964 10.295285l0 0c12.730942 0 24.94046 5.0573473 33.942596 14.059484c9.002136 9.002134 14.059486 21.211653 14.059486 33.942596l-48.002083 0z" fill-rule="evenodd"/><path fill="#000000" fill-opacity="0.0" d="m58.551964 10.295285l0 0c12.730942 0 24.94046 5.0573473 33.942596 14.059484c9.002136 9.002134 14.059486 21.211653 14.059486 33.942596" fill-rule="evenodd"/><path stroke="#000000" stroke-width="3.0" stroke-linejoin="round" stroke-linecap="butt" d="m58.551964 10.295285l0 0c12.730942 0 24.94046 5.0573473 33.942596 14.059484c9.002136 9.002134 14.059486 21.211653 14.059486 33.942596" fill-rule="evenodd"/><path fill="#000000" fill-opacity="0.0" d="m58.551964 106.30053l0 0c-12.730942 0 -24.94046 -5.05735 -33.942596 -14.059486c-9.002136 -9.002136 -14.059484 -21.211655 -14.059484 -33.942593l48.00208 0z" fill-rule="evenodd"/><path fill="#000000" fill-opacity="0.0" d="m58.551964 106.30053l0 0c-12.730942 0 -24.94046 -5.05735 -33.942596 -14.059486c-9.002136 -9.002136 -14.059484 -21.211655 -14.059484 -33.942593" fill-rule="evenodd"/><path stroke="#000000" stroke-width="3.0" stroke-linejoin="round" stroke-linecap="butt" d="m58.551964 106.30053l0 0c-12.730942 0 -24.94046 -5.05735 -33.942596 -14.059486c-9.002136 -9.002136 -14.059484 -21.211655 -14.059484 -33.942593" fill-rule="evenodd"/></g></svg>